<svg width="158" height="38" viewBox="0 0 158 38" fill="none" xmlns="http://www.w3.org/2000/svg">
<path d="M40 15.7807C40 24.4962 31.0457 22.8821 20 22.8821C8.9543 22.8821 0 24.4962 0 15.7807C0 7.06528 8.9543 0 20 0C31.0457 0 40 7.06528 40 15.7807Z" fill="#CED7E4"/>
<rect x="2" y="26" width="36" height="12" rx="6" fill="#CED7E4"/>
<path d="M50.36 28V14H55.98C57.4333 14 58.54 14.34 59.3 15.02C60.0733 15.6867 60.46 16.5467 60.46 17.6C60.46 18.48 60.22 19.1867 59.74 19.72C59.2733 20.24 58.7 20.5933 58.02 20.78C58.82 20.94 59.48 21.34 60 21.98C60.52 22.6067 60.78 23.34 60.78 24.18C60.78 25.2867 60.38 26.2 59.58 26.92C58.78 27.64 57.6467 28 56.18 28H50.36ZM52.92 19.88H55.6C56.32 19.88 56.8733 19.7133 57.26 19.38C57.6467 19.0467 57.84 18.5733 57.84 17.96C57.84 17.3733 57.6467 16.9133 57.26 16.58C56.8867 16.2333 56.32 16.06 55.56 16.06H52.92V19.88ZM52.92 25.92H55.78C56.54 25.92 57.1267 25.7467 57.54 25.4C57.9667 25.04 58.18 24.54 58.18 23.9C58.18 23.2467 57.96 22.7333 57.52 22.36C57.08 21.9867 56.4867 21.8 55.74 21.8H52.92V25.92ZM66.7872 28.24C65.5472 28.24 64.5872 27.8533 63.9072 27.08C63.2405 26.3067 62.9072 25.1733 62.9072 23.68V18.08H65.4472V23.44C65.4472 24.2933 65.6205 24.9467 65.9672 25.4C66.3139 25.8533 66.8605 26.08 67.6072 26.08C68.3139 26.08 68.8939 25.8267 69.3472 25.32C69.8139 24.8133 70.0472 24.1067 70.0472 23.2V18.08H72.6072V28H70.3472L70.1472 26.32C69.8405 26.9067 69.3939 27.3733 68.8072 27.72C68.2339 28.0667 67.5605 28.24 66.7872 28.24ZM75.3852 28V18.08H77.6652L77.9052 19.94C78.2652 19.3 78.7518 18.7933 79.3652 18.42C79.9918 18.0333 80.7252 17.84 81.5652 17.84V20.54H80.8452C80.2852 20.54 79.7852 20.6267 79.3452 20.8C78.9052 20.9733 78.5585 21.2733 78.3052 21.7C78.0652 22.1267 77.9452 22.72 77.9452 23.48V28H75.3852ZM87.4305 25.04C86.9505 25.04 86.5038 24.9867 86.0905 24.88L85.3505 25.62C85.5771 25.74 85.8838 25.84 86.2705 25.92C86.6571 26 87.2838 26.08 88.1505 26.16C89.4705 26.28 90.4305 26.5933 91.0305 27.1C91.6305 27.6067 91.9305 28.3067 91.9305 29.2C91.9305 29.7867 91.7705 30.34 91.4505 30.86C91.1305 31.3933 90.6371 31.82 89.9705 32.14C89.3038 32.4733 88.4505 32.64 87.4105 32.64C85.9971 32.64 84.8571 32.3733 83.9905 31.84C83.1238 31.32 82.6905 30.5333 82.6905 29.48C82.6905 28.5867 83.1238 27.8133 83.9905 27.16C83.7238 27.04 83.4905 26.9133 83.2905 26.78C83.1038 26.6467 82.9371 26.5067 82.7905 26.36V25.9L84.5305 24.06C83.7571 23.38 83.3705 22.5067 83.3705 21.44C83.3705 20.7733 83.5305 20.1667 83.8505 19.62C84.1838 19.0733 84.6505 18.64 85.2505 18.32C85.8505 18 86.5771 17.84 87.4305 17.84C87.9905 17.84 88.5105 17.92 88.9905 18.08H92.7505V19.64L91.0505 19.76C91.3171 20.2667 91.4505 20.8267 91.4505 21.44C91.4505 22.1067 91.2905 22.7133 90.9705 23.26C90.6505 23.8067 90.1838 24.24 89.5705 24.56C88.9705 24.88 88.2571 25.04 87.4305 25.04ZM87.4305 23.08C87.9505 23.08 88.3771 22.94 88.7105 22.66C89.0571 22.38 89.2305 21.98 89.2305 21.46C89.2305 20.94 89.0571 20.54 88.7105 20.26C88.3771 19.98 87.9505 19.84 87.4305 19.84C86.8838 19.84 86.4438 19.98 86.1105 20.26C85.7771 20.54 85.6105 20.94 85.6105 21.46C85.6105 21.98 85.7771 22.38 86.1105 22.66C86.4438 22.94 86.8838 23.08 87.4305 23.08ZM85.0305 29.22C85.0305 29.7133 85.2571 30.08 85.7105 30.32C86.1771 30.5733 86.7438 30.7 87.4105 30.7C88.0505 30.7 88.5705 30.5667 88.9705 30.3C89.3705 30.0467 89.5705 29.7 89.5705 29.26C89.5705 28.9 89.4371 28.6 89.1705 28.36C88.9171 28.12 88.4038 27.9733 87.6305 27.92C87.0838 27.88 86.5771 27.82 86.1105 27.74C85.7238 27.9533 85.4438 28.1867 85.2705 28.44C85.1105 28.6933 85.0305 28.9533 85.0305 29.22ZM99.1966 28.24C98.1966 28.24 97.3099 28.0267 96.5366 27.6C95.7632 27.1733 95.1566 26.5733 94.7166 25.8C94.2766 25.0267 94.0566 24.1333 94.0566 23.12C94.0566 22.0933 94.2699 21.18 94.6966 20.38C95.1366 19.58 95.7366 18.96 96.4966 18.52C97.2699 18.0667 98.1766 17.84 99.2166 17.84C100.19 17.84 101.05 18.0533 101.797 18.48C102.543 18.9067 103.123 19.4933 103.537 20.24C103.963 20.9733 104.177 21.7933 104.177 22.7C104.177 22.8467 104.17 23 104.157 23.16C104.157 23.32 104.15 23.4867 104.137 23.66H96.5966C96.6499 24.4333 96.9166 25.04 97.3966 25.48C97.8899 25.92 98.4832 26.14 99.1766 26.14C99.6966 26.14 100.13 26.0267 100.477 25.8C100.837 25.56 101.103 25.2533 101.277 24.88H103.877C103.69 25.5067 103.377 26.08 102.937 26.6C102.51 27.1067 101.977 27.5067 101.337 27.8C100.71 28.0933 99.9966 28.24 99.1966 28.24ZM99.2166 19.92C98.5899 19.92 98.0366 20.1 97.5566 20.46C97.0766 20.8067 96.7699 21.34 96.6366 22.06H101.577C101.537 21.4067 101.297 20.8867 100.857 20.5C100.417 20.1133 99.8699 19.92 99.2166 19.92ZM106.48 28V18.08H108.76L109 19.94C109.36 19.3 109.846 18.7933 110.46 18.42C111.086 18.0333 111.82 17.84 112.66 17.84V20.54H111.94C111.38 20.54 110.88 20.6267 110.44 20.8C110 20.9733 109.653 21.2733 109.4 21.7C109.16 22.1267 109.04 22.72 109.04 23.48V28H106.48ZM114.619 28V14H120.239C121.693 14 122.799 14.34 123.559 15.02C124.333 15.6867 124.719 16.5467 124.719 17.6C124.719 18.48 124.479 19.1867 123.999 19.72C123.533 20.24 122.959 20.5933 122.279 20.78C123.079 20.94 123.739 21.34 124.259 21.98C124.779 22.6067 125.039 23.34 125.039 24.18C125.039 25.2867 124.639 26.2 123.839 26.92C123.039 27.64 121.906 28 120.439 28H114.619ZM117.179 19.88H119.859C120.579 19.88 121.133 19.7133 121.519 19.38C121.906 19.0467 122.099 18.5733 122.099 17.96C122.099 17.3733 121.906 16.9133 121.519 16.58C121.146 16.2333 120.579 16.06 119.819 16.06H117.179V19.88ZM117.179 25.92H120.039C120.799 25.92 121.386 25.7467 121.799 25.4C122.226 25.04 122.439 24.54 122.439 23.9C122.439 23.2467 122.219 22.7333 121.779 22.36C121.339 21.9867 120.746 21.8 119.999 21.8H117.179V25.92ZM127.327 28V13.6H129.887V28H127.327ZM134.032 16.54C133.566 16.54 133.179 16.4 132.872 16.12C132.579 15.84 132.432 15.4867 132.432 15.06C132.432 14.6333 132.579 14.2867 132.872 14.02C133.179 13.74 133.566 13.6 134.032 13.6C134.499 13.6 134.879 13.74 135.172 14.02C135.479 14.2867 135.632 14.6333 135.632 15.06C135.632 15.4867 135.479 15.84 135.172 16.12C134.879 16.4 134.499 16.54 134.032 16.54ZM132.752 28V18.08H135.312V28H132.752ZM142.234 28.24C141.354 28.24 140.581 28.1 139.914 27.82C139.248 27.5267 138.714 27.1267 138.314 26.62C137.914 26.1133 137.674 25.5267 137.594 24.86H140.174C140.254 25.2467 140.468 25.58 140.814 25.86C141.174 26.1267 141.634 26.26 142.194 26.26C142.754 26.26 143.161 26.1467 143.414 25.92C143.681 25.6933 143.814 25.4333 143.814 25.14C143.814 24.7133 143.628 24.4267 143.254 24.28C142.881 24.12 142.361 23.9667 141.694 23.82C141.268 23.7267 140.834 23.6133 140.394 23.48C139.954 23.3467 139.548 23.18 139.174 22.98C138.814 22.7667 138.521 22.5 138.294 22.18C138.068 21.8467 137.954 21.44 137.954 20.96C137.954 20.08 138.301 19.34 138.994 18.74C139.701 18.14 140.688 17.84 141.954 17.84C143.128 17.84 144.061 18.1133 144.754 18.66C145.461 19.2067 145.881 19.96 146.014 20.92H143.594C143.448 20.1867 142.894 19.82 141.934 19.82C141.454 19.82 141.081 19.9133 140.814 20.1C140.561 20.2867 140.434 20.52 140.434 20.8C140.434 21.0933 140.628 21.3267 141.014 21.5C141.401 21.6733 141.914 21.8333 142.554 21.98C143.248 22.14 143.881 22.32 144.454 22.52C145.041 22.7067 145.508 22.9933 145.854 23.38C146.201 23.7533 146.374 24.2933 146.374 25C146.388 25.6133 146.228 26.1667 145.894 26.66C145.561 27.1533 145.081 27.54 144.454 27.82C143.828 28.1 143.088 28.24 142.234 28.24ZM152.892 28.24C152.012 28.24 151.239 28.1 150.572 27.82C149.906 27.5267 149.372 27.1267 148.972 26.62C148.572 26.1133 148.332 25.5267 148.252 24.86H150.832C150.912 25.2467 151.126 25.58 151.472 25.86C151.832 26.1267 152.292 26.26 152.852 26.26C153.412 26.26 153.819 26.1467 154.072 25.92C154.339 25.6933 154.472 25.4333 154.472 25.14C154.472 24.7133 154.286 24.4267 153.912 24.28C153.539 24.12 153.019 23.9667 152.352 23.82C151.926 23.7267 151.492 23.6133 151.052 23.48C150.612 23.3467 150.206 23.18 149.832 22.98C149.472 22.7667 149.179 22.5 148.952 22.18C148.726 21.8467 148.612 21.44 148.612 20.96C148.612 20.08 148.959 19.34 149.652 18.74C150.359 18.14 151.346 17.84 152.612 17.84C153.786 17.84 154.719 18.1133 155.412 18.66C156.119 19.2067 156.539 19.96 156.672 20.92H154.252C154.106 20.1867 153.552 19.82 152.592 19.82C152.112 19.82 151.739 19.9133 151.472 20.1C151.219 20.2867 151.092 20.52 151.092 20.8C151.092 21.0933 151.286 21.3267 151.672 21.5C152.059 21.6733 152.572 21.8333 153.212 21.98C153.906 22.14 154.539 22.32 155.112 22.52C155.699 22.7067 156.166 22.9933 156.512 23.38C156.859 23.7533 157.032 24.2933 157.032 25C157.046 25.6133 156.886 26.1667 156.552 26.66C156.219 27.1533 155.739 27.54 155.112 27.82C154.486 28.1 153.746 28.24 152.892 28.24Z" fill="#7B95B7"/>
</svg>
